<svg width="150" height="17" viewBox="0 0 150 17" fill="none" xmlns="http://www.w3.org/2000/svg">
<path d="M7.6 5.28C8.44 5.28 9.2 5.45333 9.88 5.8C10.56 6.13333 11.0933 6.66 11.48 7.38C11.88 8.1 12.08 9.03333 12.08 10.18V16.42H7.56V10.96C7.56 10.28 7.44 9.8 7.2 9.52C6.96 9.22666 6.63333 9.08 6.22 9.08C5.91333 9.08 5.62667 9.15333 5.36 9.3C5.10667 9.43333 4.9 9.66 4.74 9.98C4.59333 10.3 4.52 10.7333 4.52 11.28V16.42H1.49012e-08V5.48H4.3V8.68L3.44 7.76C3.86667 6.93333 4.44 6.31333 5.16 5.9C5.89333 5.48666 6.70667 5.28 7.6 5.28ZM20.2783 16.62C18.9449 16.62 17.7783 16.3733 16.7783 15.88C15.7916 15.3867 15.0249 14.7133 14.4783 13.86C13.9316 12.9933 13.6583 12.02 13.6583 10.94C13.6583 9.83333 13.9249 8.85333 14.4583 8C15.0049 7.14666 15.7449 6.48 16.6783 6C17.6249 5.52 18.6849 5.28 19.8583 5.28C20.9383 5.28 21.9316 5.49333 22.8383 5.92C23.7583 6.34666 24.4916 6.98 25.0383 7.82C25.5983 8.66 25.8783 9.7 25.8783 10.94C25.8783 11.1 25.8716 11.28 25.8583 11.48C25.8449 11.6667 25.8316 11.84 25.8183 12H17.3983V9.82H23.4183L21.7183 10.4C21.7183 9.97333 21.6383 9.61333 21.4783 9.32C21.3316 9.01333 21.1249 8.78 20.8583 8.62C20.5916 8.44666 20.2716 8.36 19.8983 8.36C19.5249 8.36 19.1983 8.44666 18.9183 8.62C18.6516 8.78 18.4449 9.01333 18.2983 9.32C18.1516 9.61333 18.0783 9.97333 18.0783 10.4V11.08C18.0783 11.5467 18.1716 11.9467 18.3583 12.28C18.5449 12.6133 18.8116 12.8667 19.1583 13.04C19.5049 13.2 19.9249 13.28 20.4183 13.28C20.9249 13.28 21.3383 13.2133 21.6583 13.08C21.9916 12.9467 22.3383 12.7467 22.6983 12.48L25.0583 14.86C24.5249 15.4333 23.8649 15.8733 23.0783 16.18C22.3049 16.4733 21.3716 16.62 20.2783 16.62ZM32.5847 16.62C31.078 16.62 29.9047 16.26 29.0647 15.54C28.2247 14.8067 27.8047 13.6867 27.8047 12.18V3.02H32.3247V12.14C32.3247 12.4733 32.4114 12.7333 32.5847 12.92C32.7714 13.1067 32.998 13.2 33.2647 13.2C33.6514 13.2 33.9914 13.1 34.2847 12.9L35.3647 16.04C35.018 16.24 34.598 16.3867 34.1047 16.48C33.6247 16.5733 33.118 16.62 32.5847 16.62ZM26.3047 9.38V6.08H34.5647V9.38H26.3047ZM36.8086 16.42V6.02C36.8086 4.60666 37.2286 3.48 38.0686 2.64C38.9219 1.8 40.1286 1.38 41.6886 1.38C42.1686 1.38 42.6486 1.42666 43.1286 1.52C43.6219 1.6 44.0353 1.73333 44.3686 1.92L43.2886 5.06C43.1419 4.99333 42.9819 4.93333 42.8086 4.88C42.6353 4.82666 42.4553 4.8 42.2686 4.8C41.9486 4.8 41.6886 4.9 41.4886 5.1C41.2886 5.3 41.1886 5.62 41.1886 6.06V6.58L41.3286 8.44V16.42H36.8086ZM35.3086 9.38V6.08H43.5686V9.38H35.3086ZM45.3286 16.42V1.58H49.8486V16.42H45.3286ZM51.8555 16.42V5.48H56.3755V16.42H51.8555ZM54.1155 4.6C53.2888 4.6 52.6288 4.38 52.1355 3.94C51.6421 3.5 51.3955 2.95333 51.3955 2.3C51.3955 1.64666 51.6421 1.1 52.1355 0.659997C52.6288 0.219997 53.2888 -2.6226e-06 54.1155 -2.6226e-06C54.9421 -2.6226e-06 55.6021 0.206664 56.0955 0.619998C56.5888 1.03333 56.8355 1.56666 56.8355 2.22C56.8355 2.91333 56.5888 3.48666 56.0955 3.94C55.6021 4.38 54.9421 4.6 54.1155 4.6ZM57.1989 16.42L62.3589 9.66L62.2389 12.26L57.3189 5.48H62.4189L64.8389 9.1L62.9589 9.24L65.6189 5.48H70.3589L65.4189 12.04V9.54L70.4589 16.42H65.2789L62.7789 12.56L64.6789 12.82L62.0989 16.42H57.1989ZM72.0895 16.42V5.82H73.9295V8.7L73.7495 7.98C74.0429 7.24666 74.5362 6.68666 75.2295 6.3C75.9229 5.91333 76.7762 5.72 77.7895 5.72V7.58C77.7095 7.56666 77.6295 7.56 77.5495 7.56C77.4829 7.56 77.4162 7.56 77.3495 7.56C76.3229 7.56 75.5095 7.86666 74.9095 8.48C74.3095 9.09333 74.0095 9.98 74.0095 11.14V16.42H72.0895ZM84.5983 16.54C83.5316 16.54 82.5849 16.3067 81.7583 15.84C80.9316 15.3733 80.2783 14.7333 79.7983 13.92C79.3183 13.0933 79.0783 12.16 79.0783 11.12C79.0783 10.0667 79.3183 9.13333 79.7983 8.32C80.2783 7.50666 80.9316 6.87333 81.7583 6.42C82.5849 5.95333 83.5316 5.72 84.5983 5.72C85.6516 5.72 86.5916 5.95333 87.4183 6.42C88.2583 6.87333 88.9116 7.50666 89.3783 8.32C89.8583 9.12 90.0983 10.0533 90.0983 11.12C90.0983 12.1733 89.8583 13.1067 89.3783 13.92C88.9116 14.7333 88.2583 15.3733 87.4183 15.84C86.5916 16.3067 85.6516 16.54 84.5983 16.54ZM84.5983 14.86C85.2783 14.86 85.8849 14.7067 86.4183 14.4C86.9649 14.0933 87.3916 13.66 87.6983 13.1C88.0049 12.5267 88.1583 11.8667 88.1583 11.12C88.1583 10.36 88.0049 9.70666 87.6983 9.16C87.3916 8.6 86.9649 8.16666 86.4183 7.86C85.8849 7.55333 85.2783 7.4 84.5983 7.4C83.9183 7.4 83.3116 7.55333 82.7783 7.86C82.2449 8.16666 81.8183 8.6 81.4983 9.16C81.1783 9.70666 81.0183 10.36 81.0183 11.12C81.0183 11.8667 81.1783 12.5267 81.4983 13.1C81.8183 13.66 82.2449 14.0933 82.7783 14.4C83.3116 14.7067 83.9183 14.86 84.5983 14.86ZM97.2136 16.54C96.3069 16.54 95.5069 16.3733 94.8136 16.04C94.1336 15.7067 93.6003 15.2 93.2136 14.52C92.8403 13.8267 92.6536 12.96 92.6536 11.92V5.82H94.5736V11.7C94.5736 12.74 94.8203 13.52 95.3136 14.04C95.8203 14.56 96.5269 14.82 97.4336 14.82C98.1003 14.82 98.6803 14.6867 99.1736 14.42C99.6669 14.14 100.047 13.74 100.314 13.22C100.58 12.6867 100.714 12.0467 100.714 11.3V5.82H102.634V16.42H100.814V13.56L101.114 14.32C100.767 15.0267 100.247 15.5733 99.5536 15.96C98.8603 16.3467 98.0803 16.54 97.2136 16.54ZM106.289 16.42V1.58H108.209V16.42H106.289ZM116.595 16.54C115.461 16.54 114.461 16.3067 113.595 15.84C112.741 15.3733 112.075 14.7333 111.595 13.92C111.128 13.1067 110.895 12.1733 110.895 11.12C110.895 10.0667 111.121 9.13333 111.575 8.32C112.041 7.50666 112.675 6.87333 113.475 6.42C114.288 5.95333 115.201 5.72 116.215 5.72C117.241 5.72 118.148 5.94666 118.935 6.4C119.721 6.85333 120.335 7.49333 120.775 8.32C121.228 9.13333 121.455 10.0867 121.455 11.18C121.455 11.26 121.448 11.3533 121.435 11.46C121.435 11.5667 121.428 11.6667 121.415 11.76H112.395V10.38H120.415L119.635 10.86C119.648 10.18 119.508 9.57333 119.215 9.04C118.921 8.50666 118.515 8.09333 117.995 7.8C117.488 7.49333 116.895 7.34 116.215 7.34C115.548 7.34 114.955 7.49333 114.435 7.8C113.915 8.09333 113.508 8.51333 113.215 9.06C112.921 9.59333 112.775 10.2067 112.775 10.9V11.22C112.775 11.9267 112.935 12.56 113.255 13.12C113.588 13.6667 114.048 14.0933 114.635 14.4C115.221 14.7067 115.895 14.86 116.655 14.86C117.281 14.86 117.848 14.7533 118.355 14.54C118.875 14.3267 119.328 14.0067 119.715 13.58L120.775 14.82C120.295 15.38 119.695 15.8067 118.975 16.1C118.268 16.3933 117.475 16.54 116.595 16.54ZM127.761 16.54C126.694 16.54 125.867 16.2533 125.281 15.68C124.694 15.1067 124.401 14.2867 124.401 13.22V3.5H126.321V13.14C126.321 13.7133 126.461 14.1533 126.741 14.46C127.034 14.7667 127.447 14.92 127.981 14.92C128.581 14.92 129.081 14.7533 129.481 14.42L130.081 15.8C129.787 16.0533 129.434 16.24 129.021 16.36C128.621 16.48 128.201 16.54 127.761 16.54ZM122.601 7.4V5.82H129.361V7.4H122.601ZM135.788 16.54C134.721 16.54 133.895 16.2533 133.308 15.68C132.721 15.1067 132.428 14.2867 132.428 13.22V3.5H134.348V13.14C134.348 13.7133 134.488 14.1533 134.768 14.46C135.061 14.7667 135.475 14.92 136.008 14.92C136.608 14.92 137.108 14.7533 137.508 14.42L138.108 15.8C137.815 16.0533 137.461 16.24 137.048 16.36C136.648 16.48 136.228 16.54 135.788 16.54ZM130.628 7.4V5.82H137.388V7.4H130.628ZM144.798 16.54C143.664 16.54 142.664 16.3067 141.798 15.84C140.944 15.3733 140.278 14.7333 139.798 13.92C139.331 13.1067 139.098 12.1733 139.098 11.12C139.098 10.0667 139.324 9.13333 139.778 8.32C140.244 7.50666 140.878 6.87333 141.678 6.42C142.491 5.95333 143.404 5.72 144.418 5.72C145.444 5.72 146.351 5.94666 147.138 6.4C147.924 6.85333 148.538 7.49333 148.978 8.32C149.431 9.13333 149.658 10.0867 149.658 11.18C149.658 11.26 149.651 11.3533 149.638 11.46C149.638 11.5667 149.631 11.6667 149.618 11.76H140.598V10.38H148.618L147.838 10.86C147.851 10.18 147.711 9.57333 147.418 9.04C147.124 8.50666 146.718 8.09333 146.198 7.8C145.691 7.49333 145.098 7.34 144.418 7.34C143.751 7.34 143.158 7.49333 142.638 7.8C142.118 8.09333 141.711 8.51333 141.418 9.06C141.124 9.59333 140.978 10.2067 140.978 10.9V11.22C140.978 11.9267 141.138 12.56 141.458 13.12C141.791 13.6667 142.251 14.0933 142.838 14.4C143.424 14.7067 144.098 14.86 144.858 14.86C145.484 14.86 146.051 14.7533 146.558 14.54C147.078 14.3267 147.531 14.0067 147.918 13.58L148.978 14.82C148.498 15.38 147.898 15.8067 147.178 16.1C146.471 16.3933 145.678 16.54 144.798 16.54Z" fill="#F65261"/>
</svg>
